<?xml version="1.0" standalone="no"?>
<!DOCTYPE svg PUBLIC "-//W3C//DTD SVG 20010904//EN"
 "http://www.w3.org/TR/2001/REC-SVG-20010904/DTD/svg10.dtd">
<svg version="1.0" xmlns="http://www.w3.org/2000/svg"
 width="1024.000000pt" height="1024.000000pt" viewBox="0 0 1024.000000 1024.000000"
 preserveAspectRatio="xMidYMid meet">

<g transform="translate(0.000000,1024.000000) scale(0.100000,-0.100000)"
fill="#000000" stroke="none">
<path d="M5572 9819 c-290 -48 -556 -259 -649 -515 -58 -163 -51 -292 26 -468
67 -151 85 -239 84 -401 -3 -424 -221 -869 -656 -1335 -141 -150 -273 -269
-602 -540 -533 -438 -821 -771 -1032 -1193 -30 -62 -57 -114 -58 -115 -2 -2
-39 4 -82 14 -114 27 -290 24 -407 -5 -200 -51 -360 -144 -516 -301 -124 -124
-213 -250 -304 -435 -191 -383 -288 -849 -290 -1385 -1 -330 33 -567 119 -827
203 -617 652 -1006 1225 -1063 174 -18 417 17 529 75 27 13 29 12 72 -31 69
-72 211 -188 309 -254 236 -159 531 -280 850 -349 324 -69 786 -80 1155 -26
l100 15 102 -44 c267 -118 678 -209 1003 -223 739 -30 1236 319 1376 967 l17
75 101 33 c210 69 360 157 497 292 136 134 221 281 271 468 29 113 36 337 14
484 l-17 113 68 70 c212 216 306 497 274 823 -19 193 -58 330 -173 603 -10 23
-7 37 17 90 97 218 118 488 59 779 -69 343 -211 617 -439 845 -311 311 -749
487 -1337 536 -167 14 -586 6 -768 -15 -148 -17 -324 -43 -354 -53 -35 -10 18
52 219 257 293 299 420 486 526 772 69 189 101 367 101 577 1 330 -80 629
-254 946 -205 371 -448 603 -736 701 -153 52 -299 66 -440 43z m317 -580 c144
-71 272 -213 400 -444 75 -135 132 -279 168 -422 24 -95 27 -128 28 -273 0
-225 -31 -369 -124 -563 -73 -153 -149 -256 -353 -483 -299 -330 -418 -599
-418 -948 0 -151 17 -257 75 -459 176 -622 150 -1106 -85 -1573 -168 -334
-421 -602 -820 -868 -63 -42 -110 -76 -105 -76 5 0 86 38 179 84 265 131 464
269 645 447 61 60 82 76 77 59 -30 -107 -12 -289 41 -410 l26 -60 -80 -83
c-229 -239 -322 -567 -244 -868 124 -480 633 -796 1439 -894 144 -17 504 -34
590 -27 60 5 61 2 38 -85 -65 -243 -270 -378 -686 -449 -131 -23 -164 -25
-340 -21 -158 4 -218 10 -316 31 -334 71 -758 251 -881 374 -135 134 -207 333
-187 515 8 78 47 214 78 275 36 72 111 166 156 197 54 38 43 44 -22 12 -151
-74 -292 -270 -349 -482 -16 -60 -21 -109 -21 -195 0 -132 20 -223 75 -343
l35 -75 -62 -6 c-517 -48 -1025 37 -1418 241 -372 192 -702 531 -949 975 -29
53 -55 96 -56 94 -6 -5 65 -242 102 -343 83 -224 224 -474 363 -643 l62 -75
-86 -3 c-150 -5 -325 39 -499 125 -390 193 -633 571 -710 1104 -25 177 -35
458 -25 692 23 489 78 852 175 1141 47 142 85 216 151 297 179 220 400 349
597 349 57 0 68 -3 63 -15 -18 -49 -58 -217 -76 -318 -14 -84 -20 -160 -19
-255 2 -175 12 -230 22 -117 39 431 291 907 697 1315 208 209 394 356 726 575
517 341 798 583 1076 928 119 149 209 291 298 472 90 183 138 320 177 502 24
114 27 150 27 323 0 247 -18 339 -109 557 -11 25 -15 52 -11 67 9 36 61 92
114 123 113 66 220 67 351 2z m1501 -3180 c639 -67 1031 -344 1196 -845 96
-296 84 -548 -36 -739 -166 -262 -576 -426 -1106 -442 -602 -18 -1170 157
-1301 400 -22 40 -24 185 -4 267 72 301 399 552 852 654 118 26 332 49 379 41
21 -4 21 -3 -6 10 -51 23 -219 54 -367 67 -284 25 -599 -32 -840 -150 -42 -21
-80 -36 -82 -33 -3 2 -5 24 -5 47 0 61 -26 247 -55 389 -13 66 -27 141 -30
166 -8 54 -28 45 190 89 239 48 472 78 740 94 88 5 365 -4 475 -15z m-1285
-1909 c118 -121 375 -253 640 -329 271 -78 512 -111 807 -111 367 0 657 59
912 186 50 24 93 41 97 37 18 -18 60 -204 66 -290 11 -163 -26 -278 -124 -383
-212 -229 -720 -344 -1437 -327 -452 11 -747 70 -994 196 -259 134 -389 323
-380 555 3 82 7 100 40 167 20 41 62 105 93 142 54 65 208 197 230 197 6 0 29
-18 50 -40z m-299 -1130 c289 -274 757 -433 1441 -491 211 -17 653 -7 813 20
69 11 150 27 180 36 30 8 57 15 59 15 9 0 -14 -103 -39 -172 -71 -195 -219
-352 -436 -461 -75 -38 -238 -93 -345 -115 -357 -77 -840 -75 -1222 4 -429 90
-688 277 -784 569 -23 70 -26 96 -26 210 0 101 5 148 21 210 25 94 95 240 147
308 l36 47 43 -57 c24 -32 74 -87 112 -123z"/>
</g>
</svg>
