<?xml version="1.0" standalone="no"?>
<!DOCTYPE svg PUBLIC "-//W3C//DTD SVG 20010904//EN"
 "http://www.w3.org/TR/2001/REC-SVG-20010904/DTD/svg10.dtd">
<svg version="1.0" xmlns="http://www.w3.org/2000/svg"
 width="700.000000pt" height="700.000000pt" viewBox="0 0 700.000000 700.000000"
 preserveAspectRatio="xMidYMid meet">
<metadata>
Created by potrace 1.14, written by Peter Selinger 2001-2017
</metadata>
<g transform="translate(0.000000,700.000000) scale(0.100000,-0.100000)"
fill="#000000" stroke="none">
<path d="M3309 6756 c-2 -2 -35 -7 -74 -10 -38 -3 -81 -8 -95 -10 -14 -3 -52
-7 -85 -11 -209 -23 -526 -110 -789 -218 -154 -63 -430 -214 -586 -321 -95
-65 -76 -51 -210 -158 -427 -344 -775 -816 -981 -1330 -82 -206 -174 -553
-194 -733 -3 -27 -7 -66 -10 -85 -12 -88 -20 -227 -19 -355 1 -117 5 -152 24
-214 81 -255 352 -449 611 -436 123 7 254 52 341 118 73 56 88 70 126 122 97
131 128 230 137 442 4 88 12 156 30 278 26 168 96 386 173 540 122 245 331
510 537 684 231 194 684 396 980 436 79 11 440 13 550 3 142 -13 252 -42 479
-128 93 -35 333 -160 415 -215 330 -222 630 -622 762 -1015 36 -108 41 -128
54 -197 3 -16 8 -39 11 -53 3 -14 8 -38 10 -55 3 -16 9 -51 14 -76 5 -25 12
-91 15 -145 11 -198 26 -246 90 -303 151 -133 378 -57 413 138 9 50 8 195 -2
276 -2 22 -7 63 -10 90 -4 28 -13 88 -22 135 -147 807 -639 1459 -1379 1827
-180 90 -464 179 -660 207 -23 4 -50 8 -62 10 -12 3 -53 7 -90 11 -37 3 -88 8
-113 11 -58 7 -319 7 -390 -1 -122 -12 -159 -17 -240 -31 -1004 -180 -1788
-932 -2009 -1929 -20 -90 -25 -115 -35 -190 -9 -61 -14 -112 -21 -200 -4 -44
-8 -87 -10 -95 -1 -8 -6 -41 -9 -73 -10 -81 -42 -117 -102 -117 -61 0 -94 32
-95 92 -4 114 5 334 15 383 2 11 7 45 12 75 4 30 8 57 9 60 1 3 5 23 9 45 10
50 65 265 73 285 3 8 7 17 8 20 27 107 142 369 229 525 211 375 548 728 911
953 292 180 652 322 960 377 169 30 283 39 485 40 241 0 355 -10 564 -51 946
-185 1712 -849 2046 -1773 32 -90 86 -278 95 -331 3 -19 10 -51 15 -70 8 -36
14 -72 36 -230 4 -30 8 -149 8 -265 1 -272 -10 -395 -59 -620 -53 -250 -197
-603 -343 -839 -49 -80 -136 -207 -167 -243 -5 -7 -15 -18 -20 -25 -224 -286
-538 -545 -899 -742 -164 -89 -482 -206 -632 -232 -27 -5 -48 -8 -119 -23 -27
-5 -69 -12 -92 -15 -116 -16 -123 -17 -293 -31 -239 -20 -316 -56 -355 -164
-34 -97 -11 -202 60 -274 71 -71 123 -79 421 -63 72 4 142 9 155 11 13 2 49 6
79 9 300 33 768 191 1086 367 157 87 398 246 460 304 7 5 31 26 55 45 257 207
503 487 692 787 228 364 389 804 452 1243 26 175 36 303 36 465 1 118 -8 326
-16 366 -2 9 -6 40 -10 70 -5 48 -26 174 -40 253 -14 75 -77 302 -110 396
-107 307 -261 608 -427 832 -184 249 -444 515 -673 690 -49 37 -94 72 -100 76
-31 25 -144 97 -241 154 -285 169 -644 309 -959 374 -90 19 -242 44 -300 49
-38 3 -88 8 -110 11 -54 6 -481 14 -486 10z"/>
</g>
</svg>
